<svg id="Flat_copy" xmlns="http://www.w3.org/2000/svg" width="34.667" height="34" viewBox="0 0 34.667 34">
  <g id="Group_2" data-name="Group 2">
    <g id="Group_1" data-name="Group 1">
      <path id="Path_1" data-name="Path 1" d="M17.333,33.625A16.813,16.813,0,0,1,.375,17,16.813,16.813,0,0,1,17.333.375,16.814,16.814,0,0,1,34.292,17,16.814,16.814,0,0,1,17.333,33.625Z" fill="#fff"/>
      <path id="Path_2" data-name="Path 2" d="M17.333.8A16.383,16.383,0,0,1,33.854,17,16.383,16.383,0,0,1,17.333,33.2,16.383,16.383,0,0,1,.812,17,16.383,16.383,0,0,1,17.333.8m0-.8A17.168,17.168,0,0,0,0,17,17.169,17.169,0,0,0,17.333,34,17.169,17.169,0,0,0,34.667,17,17.168,17.168,0,0,0,17.333,0Z" fill="#e5e5e5"/>
    </g>
  </g>
  <path id="Path_3" data-name="Path 3" d="M19.9,8.886a3.722,3.722,0,0,0-2.857,3.7l.044.63-.732-.077a12.682,12.682,0,0,1-6.973-2.984l-.967-.836-.248.617a3.366,3.366,0,0,0,.908,3.808c.586.54.454.617-.556.3a1.932,1.932,0,0,0-.689-.141,4.138,4.138,0,0,0,.527,1.724,4.522,4.522,0,0,0,2.007,1.647l.719.3-.851.011c-.82,0-.85.013-.761.284a4.264,4.264,0,0,0,2.739,2.11l.908.27-.791.412a9.16,9.16,0,0,1-3.926.951,4.944,4.944,0,0,0-1.2.1,12.049,12.049,0,0,0,2.827,1.132,14.03,14.03,0,0,0,9.61-.952A11.771,11.771,0,0,0,24.511,16.9a11.8,11.8,0,0,0,1-3.858c0-.592.044-.669.864-1.376a9.089,9.089,0,0,0,1.026-.99c.147-.245.131-.245-.615-.026-1.245.386-1.421.335-.8-.244a3.709,3.709,0,0,0,1-1.376c0-.038-.22.026-.469.141a8.8,8.8,0,0,1-1.29.437l-.791.219L23.707,9.4a6.346,6.346,0,0,0-1.245-.566A5.736,5.736,0,0,0,19.9,8.886Z" transform="translate(0 1)" fill="#333"/>
</svg>
