<svg xmlns="http://www.w3.org/2000/svg" width="32" height="32" viewBox="0 0 32 32">
  <g id="Group444" transform="translate(0 0.005)">
    <g id="Group_5" data-name="Group 5">
      <g id="Group_4" data-name="Group 4">
        <path id="Path_6" data-name="Path 6" d="M16,31.62A15.625,15.625,0,1,1,31.625,15.995,15.644,15.644,0,0,1,16,31.62Z" fill="#fff"/>
        <path id="Path_7" data-name="Path 7" d="M16,.745A15.25,15.25,0,1,1,.75,15.995,15.267,15.267,0,0,1,16,.745M16,0a16,16,0,1,0,16,16A16,16,0,0,0,16,0Z" fill="#e5e5e5"/>
      </g>
    </g>
    <path id="Path_8" data-name="Path 8" d="M22.057,7.924H9.943A1.988,1.988,0,0,0,7.924,9.943V22.056a1.988,1.988,0,0,0,2.019,2.019H22.056a1.988,1.988,0,0,0,2.019-2.019V9.943A1.987,1.987,0,0,0,22.057,7.924Zm-6.045,4.9a3.144,3.144,0,1,1-3.242,3.142A3.194,3.194,0,0,1,16.012,12.827Zm6.045,8.725c0,.354-.151.5-.5.5h-11.1c-.353,0-.505-.151-.505-.5V14.486l1.258.274a4.7,4.7,0,0,0-.208,1.385,5.021,5.021,0,0,0,10.037,0,4.7,4.7,0,0,0-.208-1.385l1.234-.274v7.066Zm0-9.085a.5.5,0,0,1-.5.505H19.533a.5.5,0,0,1-.5-.505V10.448a.5.5,0,0,1,.5-.505h2.019a.5.5,0,0,1,.5.505v2.019Z" fill="#333"/>
  </g>
</svg>
