<svg xmlns="http://www.w3.org/2000/svg" width="549" height="450" viewBox="0 0 549 450">
  <g id="Group_44" data-name="Group 44" transform="translate(-1160 -6061)">
    <rect id="Rectangle_4" data-name="Rectangle 4" width="549" height="450" rx="58" transform="translate(1160 6061)" fill="#ffca9a"/>
    <g id="Layer_2" transform="translate(1266.668 6068.029)">
      <g id="Group_8" data-name="Group 8" transform="translate(86.1 176)">
        <path id="Path_15" data-name="Path 15" d="M289.5,191.992a3.929,3.929,0,0,0-3.2-1.678H261.915V179.933A3.961,3.961,0,0,0,257.983,176h-88.35a3.961,3.961,0,0,0-3.932,3.932v63.549a3.961,3.961,0,0,0,3.932,3.933h11.116a17.051,17.051,0,0,0,32.823,0h43.572a17.051,17.051,0,0,0,32.823,0h8.127a3.961,3.961,0,0,0,3.932-3.933V211.13a3.744,3.744,0,0,0-.734-2.255Zm4.719,20.292H276.6V198.232H284.3ZM173.565,183.917H254.05V239.6H213.939a17.078,17.078,0,0,0-33.557,0h-6.816Zm23.6,68.059a9.228,9.228,0,1,1,9.228-9.228A9.242,9.242,0,0,1,197.16,251.976Zm76.448,0a9.228,9.228,0,1,1,9.228-9.228A9.242,9.242,0,0,1,273.608,251.976ZM290.387,239.6a17.047,17.047,0,0,0-28.471-9.228V198.232h6.764v17.985a3.961,3.961,0,0,0,3.932,3.932h21.655V239.6Z" transform="translate(-123.963 -176)"/>
        <path id="Path_16" data-name="Path 16" d="M90.033,183.965h28.052a3.933,3.933,0,1,0,0-7.865H90.033a3.933,3.933,0,1,0,0,7.865Z" transform="translate(-86.1 -176.048)"/>
        <path id="Path_17" data-name="Path 17" d="M123.935,203.4h-21.6a3.933,3.933,0,1,0,0,7.865h21.6a3.933,3.933,0,1,0,0-7.865Z" transform="translate(-91.951 -189.033)"/>
        <path id="Path_18" data-name="Path 18" d="M131.165,230.7H117.533a3.933,3.933,0,1,0,0,7.865h13.633a3.933,3.933,0,0,0,0-7.865Z" transform="translate(-99.181 -202.019)"/>
        <path id="Path_19" data-name="Path 19" d="M139.252,258h-4.719a3.932,3.932,0,0,0,0,7.865h4.719a3.932,3.932,0,1,0,0-7.865Z" transform="translate(-107.267 -215.005)"/>
      </g>
    </g>
  </g>
</svg>
