<svg xmlns="http://www.w3.org/2000/svg" width="549" height="454" viewBox="0 0 549 454">
  <g id="Group_43" data-name="Group 43" transform="translate(-176 -5537)">
    <rect id="Rectangle_4" data-name="Rectangle 4" width="549" height="454" rx="58" transform="translate(176 5537)" fill="#ffca9a"/>
    <g id="Layer_2" transform="translate(-199.232 5218.074)">
      <g id="Group_7" data-name="Group 7" transform="translate(576 476.8)">
        <path id="Path_13" data-name="Path 13" d="M107.137,195.627v38.288a3.589,3.589,0,0,0,3.563,3.563h11.924a17.173,17.173,0,0,0,33.253,0h45.936a17.173,17.173,0,0,0,33.253,0H243.9a3.589,3.589,0,0,0,3.563-3.563V200.33a3.392,3.392,0,0,0-.665-2.043l-12.351-17.434a3.56,3.56,0,0,0-2.9-1.52H205.8V168.122a3.589,3.589,0,0,0-3.563-3.563H136.589a26.067,26.067,0,1,0-29.453,31.068Zm32.113,47.6a10.071,10.071,0,1,1,10.071-10.071A10.076,10.076,0,0,1,139.25,243.226Zm79.189,0a10.071,10.071,0,1,1,10.071-10.071A10.076,10.076,0,0,1,218.439,243.226Zm21.9-41.709v.57H220.957V186.506H229.7Zm-26.507-15.011V205.65a3.589,3.589,0,0,0,3.563,3.563h22.944v21.139H235.4a17.172,17.172,0,0,0-29.6-8.836v-35.01ZM198.677,230.4H156.209a17.188,17.188,0,0,0-33.918,0h-8.028V195.77a26.089,26.089,0,0,0,22.8-24.037h61.613Zm-87.6-79.427a18.954,18.954,0,1,1-18.954,18.954A18.976,18.976,0,0,1,111.08,150.973Z" transform="translate(-85 -143.8)"/>
        <path id="Path_14" data-name="Path 14" d="M121.356,196.757a3.555,3.555,0,0,0,5.035,0l11.163-11.163a3.561,3.561,0,0,0-5.035-5.035l-8.646,8.646-4.18-4.18a3.561,3.561,0,1,0-5.035,5.035Z" transform="translate(-100.027 -162.554)"/>
      </g>
    </g>
  </g>
</svg>
